{"title":"Terminator Genisys 2015 TS READNFO XViD - CHiVE","uid":12116162,"size":2270009307,"categoryP":"video","categoryS":"movies","magnet":"?xt=urn:btih:fee87438c85df082b3b6456c67a948bc855e5900&amp;dn=Terminator+Genisys+2015+TS+READNFO+XViD+-+CHiVE&amp;tr=udp%3A%2F%2Ftracker.openbittorrent.com%3A80&amp;tr=udp%3A%2F%2Fopen.demonii.com%3A1337&amp;tr=udp%3A%2F%2Ftracker.coppersurfer.tk%3A6969&amp;tr=udp%3A%2F%2Fexodus.desync.com%3A6969","seeders":0,"leechers":1,"uploader":"TvTeam","files":5,"time":1436712490,"description":"------------------------------------------------------------------------\n\n &lt;a href=&quot; https://www.torrenting.com&quot; rel=&quot;nofollow&quot; target=&quot;_NEW&quot;&gt; https://www.torrenting.com&lt;/a&gt;\n\nSign up is OPEN - for time being. Come and have funTerminator Genisys 2015 TS READNFO XViD - CHiVE\n\nThx - Portuguese-youtube / S4NDM4N - youtube\n\n\n\nVideo\nID                                       : 0\nFormat                                   : MPEG-4 Visual\nFormat profile                           : Advanced Simple@L5\nFormat settings, BVOP                    : 2\nFormat settings, QPel                    : No\nFormat settings, GMC                     : No warppoints\nFormat settings, Matrix                  : Default (MPEG)\nMuxing mode                              : Packed bitstream\nCodec ID                                 : XVID\nCodec ID/Hint                            : XviD\nDuration                                 : 1h 57mn\nBit rate                                 : 2 374 Kbps\nWidth                                    : 720 pixels\nHeight                                   : 304 pixels\nDisplay aspect ratio                     : 2.35:1\nFrame rate                               : 23.976 fps\nColor space                              : YUV\nChroma subsampling                       : 4:2:0\nBit depth                                : 8 bits\nScan type                                : Progressive\nCompression mode                         : Lossy\nBits/(Pixel*Frame)                       : 0.452\nStream size                              : 1.95 GiB (94%)\nWriting library                          : XviD 64\n\nAudio\nID                                       : 1\nFormat                                   : MPEG Audio\nFormat version                           : Version 1\nFormat profile                           : Layer 3\nMode                                     : Joint stereo\nMode extension                           : MS Stereo\nCodec ID                                 : 55\nCodec ID/Hint                            : MP3\nDuration                                 : 1h 57mn\nBit rate mode                            : Constant\nBit rate                                 : 128 Kbps\nChannel(s)                               : 2 channels\nSampling rate                            : 48.0 KHz\nCompression mode                         : Lossy\nDelay relative to video                  : 204ms\nStream size                              : 107 MiB (5%)\nAlignment                                : Split accross interleaves\nInterleave, duration                     : 42 ms (1.00 video frame)\nInterleave, preload duration             : 500 ms\nWriting library                          : LAME3.99.5 (jJ\n\n\n\nNotes :\n\nOk used the proper video source which was ok but had issues with movement,alot of video noise,dark etc....\nFixed it up the best i could without over doing or adding loads of contrast to make it stand out,which only makes video glares FFS!!\nFor the ending i source the uploaded video myself off youtube and fixed it up and appended to the end of this video.\nNO INTRO AS ITS A FAKE.\n\n\nAudio i needed to cut up and resync to our video as hives sync didn't mux very well and noticed a couple of repeated lines in their release,see the scene just as\nthere getting on the school bus around the 1hr 24 min mark.\n\nReadnfo ....Please for the love of god stop it with these HD-TS Bollox tagging ffs ....its a TS!!\n\n\n&quot;its all here from start to finish with great audio and all special effects are perfect now too&quot;\n\nErmmm bollox is it...the intro is off a guy who posted it on youtube,which he made from the transformers intro....the intro is fake,yes nice granted but stop trying \nto fool everyone.\nAlso yes audio is very nice ....but to say all the special effects are now PERFECT,wtf ....come'on thats more bullshit.\n\n\n\nscreens :\n\n[img]http://i.imgur.com/axiodvq.png[/img]\n[img]http://i.imgur.com/pK2BOyy.png[/img]\n[img]http://i.imgur.com/4dj8Rtx.png[/img]\n[img]http://i.imgur.com/pGm4k1U.png[/img]\n[img]http://i.imgur.com/QAJK3sj.png[/img]\n[img]http://i.imgur.com/y4pr1uG.png[/img]","torrent":{"xt":"urn:btih:fee87438c85df082b3b6456c67a948bc855e5900","amp;dn":"Terminator+Genisys+2015+TS+READNFO+XViD+-+CHiVE","amp;tr":["udp%3A%2F%2Ftracker.openbittorrent.com%3A80","udp%3A%2F%2Fopen.demonii.com%3A1337","udp%3A%2F%2Ftracker.coppersurfer.tk%3A6969","udp%3A%2F%2Fexodus.desync.com%3A6969"],"infoHash":"fee87438c85df082b3b6456c67a948bc855e5900","infoHashBuffer":{"type":"Buffer","data":[254,232,116,56,200,93,240,130,179,182,69,108,103,169,72,188,133,94,89,0]},"announce":[],"urlList":[]}}